<?xml version="1.0" encoding="UTF-8" standalone="no"?>
<!-- Generator: Adobe Illustrator 15.1.0, SVG Export Plug-In . SVG Version: 6.00 Build 0)  -->

<svg
   xmlns:dc="http://purl.org/dc/elements/1.1/"
   xmlns:cc="http://creativecommons.org/ns#"
   xmlns:rdf="http://www.w3.org/1999/02/22-rdf-syntax-ns#"
   xmlns:svg="http://www.w3.org/2000/svg"
   xmlns="http://www.w3.org/2000/svg"
   xmlns:sodipodi="http://sodipodi.sourceforge.net/DTD/sodipodi-0.dtd"
   xmlns:inkscape="http://www.inkscape.org/namespaces/inkscape"
   version="1.1"
   id="Layer_1"
   x="0px"
   y="0px"
   width="1024px"
   height="600px"
   viewBox="0 0 1024 600"
   enable-background="new 0 0 1024 600"
   xml:space="preserve"
   inkscape:version="0.48.4 r9939"
   sodipodi:docname="web-trifecta_html5_css3_js-strict.svg"><metadata
   id="metadata3145"><rdf:RDF><cc:Work
       rdf:about=""><dc:format>image/svg+xml</dc:format><dc:type
         rdf:resource="http://purl.org/dc/dcmitype/StillImage" /></cc:Work></rdf:RDF></metadata><defs
   id="defs3143"><clipPath
     clipPathUnits="userSpaceOnUse"
     id="clipPath2999"><path
       inkscape:connector-curvature="0"
       d="M 0,273 632,273 632,0 0,0 0,273 z"
       id="path3001" /></clipPath></defs><sodipodi:namedview
   pagecolor="#ffffff"
   bordercolor="#666666"
   borderopacity="1"
   objecttolerance="10"
   gridtolerance="10"
   guidetolerance="10"
   inkscape:pageopacity="0"
   inkscape:pageshadow="2"
   inkscape:window-width="1920"
   inkscape:window-height="1017"
   id="namedview3141"
   showgrid="false"
   inkscape:zoom="0.48908218"
   inkscape:cx="157.27273"
   inkscape:cy="434.5586"
   inkscape:window-x="-8"
   inkscape:window-y="-8"
   inkscape:window-maximized="1"
   inkscape:current-layer="g3091" />
<g
   id="g3067"
   transform="matrix(0.83106577,0,0,0.8783215,-3.7862947,-41.52845)">
	<polygon
   points="296.352,531.921 174.543,565.69 53.07,531.97 26,228.35 323.45,228.35 "
   id="polygon3069"
   style="fill:#e45126" />
	<polygon
   points="174.725,253.175 174.725,539.878 273.152,512.591 296.31,253.175 "
   id="polygon3071"
   style="fill:#f1682b" />
	<polygon
   points="174.725,327.652 174.725,290.413 174.596,290.413 81.35,290.413 82.242,300.404 91.394,403.02 174.725,403.02 174.725,365.784 125.45,365.784 122.046,327.652 "
   id="polygon3073"
   style="fill:#ebebeb" />
	<polygon
   points="174.553,501.284 174.725,501.235 174.725,462.491 174.562,462.538 133.09,451.338 130.438,421.641 110.287,421.641 93.058,421.641 98.275,480.108 "
   id="polygon3075"
   style="fill:#ebebeb" />
	<g
   id="g3077">
		<path
   d="m 53.675,145.838 h 18.924 v 18.696 H 89.91 v -18.696 h 18.925 v 56.618 H 89.911 v -18.958 h -17.31 v 18.958 H 53.675 v -56.618 l 0,0 z"
   id="path3079"
   style="fill:#020202;stroke:#fae9e9;stroke-width:1.17045724;stroke-opacity:1"
   inkscape:connector-curvature="0" />
		<path
   d="m 133.719,164.614 h -16.66 v -18.775 h 52.252 v 18.775 h -16.667 v 37.843 H 133.72 l -0.001,-37.843 0,0 z"
   id="path3081"
   style="fill:#020202;stroke:#fae9e9;stroke-width:1.17045724;stroke-opacity:1"
   inkscape:connector-curvature="0" />
		<path
   d="m 177.604,145.838 h 19.733 l 12.137,19.894 12.127,-19.894 h 19.739 v 56.618 h -18.846 v -28.063 l -13.021,20.13 h -0.325 l -13.028,-20.13 v 28.063 h -18.517 l 0.001,-56.618 0,0 z"
   id="path3083"
   style="fill:#020202;stroke:#fae9e9;stroke-width:1.17045724;stroke-opacity:1"
   inkscape:connector-curvature="0" />
		<path
   d="m 250.758,145.838 h 18.929 v 37.903 h 26.612 v 18.714 h -45.542 l 0.001,-56.617 0,0 z"
   id="path3085"
   style="fill:#020202;stroke:#fae9e9;stroke-width:1.17045724;stroke-opacity:1"
   inkscape:connector-curvature="0" />
	</g>
	<polygon
   points="251.12,365.784 174.596,365.784 174.596,403.02 220.45,403.02 216.128,451.312 174.596,462.524 174.596,501.267 250.936,480.108 251.495,473.817 260.246,375.783 261.154,365.784 "
   id="polygon3087"
   style="fill:#ffffff" />
	<polygon
   points="174.596,327.652 264.423,327.652 264.423,327.652 264.543,327.652 265.29,319.282 266.986,300.404 267.877,290.413 174.596,290.413 174.596,313.541 174.596,327.56 "
   id="polygon3089"
   style="fill:#ffffff" />
</g>
<g
   id="g3091"
   transform="matrix(0.79378253,0,0,0.79378253,222.16217,72.825676)">
	<g
   id="g3093"
   style="stroke:#fae9e9;stroke-opacity:1;fill:#000000;fill-opacity:1">
		<polygon
   points="908.954,161.385 934.629,189.244 934.629,202.504 881.746,202.504 881.746,186.979 907.416,186.979 881.746,159.119 881.746,145.838 933.643,145.838 933.643,161.385 933.643,161.385 "
   id="polygon3095"
   style="fill:#000000;stroke:#fae9e9;stroke-width:1.25979078000000010;stroke-opacity:1;fill-opacity:1" />
		<polygon
   points="846.576,161.385 872.25,189.244 872.25,202.504 819.367,202.504 819.367,186.979 845.039,186.979 819.367,159.119 819.367,145.838 871.265,145.838 871.265,161.385 871.265,161.385 "
   id="polygon3097"
   style="fill:#000000;stroke:#fae9e9;stroke-width:1.25979078000000010;stroke-opacity:1;fill-opacity:1" />
		<polygon
   points="763.923,202.504 763.923,145.838 809.496,145.838 809.496,162.016 782.856,162.016 782.856,186.329 809.496,186.329 809.496,202.504 "
   id="polygon3099"
   style="fill:#000000;stroke:#fae9e9;stroke-width:1.25979078000000010;stroke-opacity:1;fill-opacity:1" />
	</g>
	<polygon
   points="970.903,531.945 849.093,565.715 727.62,531.994 700.55,228.374 998,228.374 "
   id="polygon3101"
   style="fill:#1673b6" />
	<polygon
   points="849.276,253.2 849.276,539.904 947.703,512.615 970.86,253.2 "
   id="polygon3103"
   style="fill:#35a9db" />
	<g
   id="g3105">
		<polygon
   points="849.275,325.068 849.275,287.829 849.404,287.829 942.65,287.829 941.758,297.82 932.605,400.436 849.275,400.436 849.275,363.2 898.551,363.2 901.953,325.068 "
   id="polygon3107"
   style="fill:#ffffff" />
		<polygon
   points="849.326,498.701 849.498,498.652 849.498,459.907 849.336,459.954 807.863,448.754 805.212,419.057 785.061,419.057 767.832,419.057 773.049,477.525 "
   id="polygon3109"
   style="fill:#ebebeb" />
		<polygon
   points="890.901,448.729 849.369,459.94 849.369,498.682 925.709,477.525 926.269,471.234 932.746,398.859 895.386,398.859 "
   id="polygon3111"
   style="fill:#ffffff" />
		<polygon
   points="849.404,325.068 759.576,325.068 759.576,325.068 759.457,325.068 758.711,316.698 757.014,297.82 756.123,287.829 849.404,287.829 849.404,310.957 849.404,324.976 "
   id="polygon3113"
   style="fill:#ebebeb" />
		<polygon
   points="849.275,400.441 808.447,400.441 808.447,400.441 808.328,400.441 807.582,392.073 805.885,373.195 804.994,363.204 849.275,363.204 849.275,386.333 849.275,400.35 "
   id="polygon3115"
   style="fill:#ebebeb" />
	</g>
</g>
<g
   id="g3117"
   transform="matrix(0.82006919,0,0,0.82006919,-26.827043,159.02025)">
	<polygon
   points="511.818,442.475 390.345,408.754 363.275,105.132 660.725,105.132 633.627,408.705 "
   id="polygon3119"
   style="fill:#e4a227" />
	<polygon
   points="511.75,416.287 610.178,389 633.336,129.583 511.75,129.583 "
   id="polygon3121"
   style="fill:#f0bf26" />
	<g
   id="g3123"
   style="fill:#000000;fill-opacity:1">
		<polygon
   points="540.246,38.071 565.922,65.931 565.922,79.191 513.039,79.191 513.039,63.665 538.709,63.665 513.039,35.806 513.039,22.525 564.936,22.525 564.936,38.071 564.936,38.071 "
   id="polygon3125"
   style="fill:#000000;stroke:#fae9e9;stroke-width:1.21940935000000010;stroke-opacity:1;fill-opacity:1" />
		<path
   d="M 503.621,22.55 V 79.167 H 458.078 V 60.453 h 26.613 V 22.55 h 18.928 0.002 z"
   id="path3127"
   style="fill:#000000;stroke:#fae9e9;stroke-width:1.21940935000000010;stroke-opacity:1;fill-opacity:1"
   inkscape:connector-curvature="0" />
	</g>
	<polygon
   points="511.693,377.67 511.693,338.926 511.531,338.973 470.059,327.773 467.406,298.075 447.256,298.075 430.027,298.075 435.244,356.543 511.521,377.719 "
   id="polygon3129"
   style="fill:#ebebeb" />
	<polygon
   points="516.709,279.437 516.709,242.2 470.855,242.2 476.232,183.758 516.812,182.677 516.709,143.954 442.565,143.954 439.811,171.403 431.059,269.438 430.151,279.437 440.186,279.437 "
   id="polygon3131"
   style="fill:#ebebeb" />
	<polygon
   points="516.457,143.985 516.457,182.729 516.62,182.683 557.291,185.132 560.742,223.579 580.893,223.579 598.123,223.579 591.609,151.633 516.629,143.937 "
   id="polygon3133"
   style="fill:#ffffff" />
	<polyline
   points="594.284,182.843 591.093,143.954 512.49,143.954 512.49,168.106 512.49,182.746 512.49,182.843    594.284,182.843  "
   id="polyline3135"
   style="fill:#ffffff" />
	<polygon
   points="511.564,242.218 511.564,279.454 557.418,279.454 553.096,327.748 511.564,338.959 511.564,377.701 587.904,356.543 588.463,350.252 597.215,252.217 598.123,242.218 588.088,242.218 "
   id="polygon3137"
   style="fill:#ffffff" />
	<path
   d="M 589.5,181.193"
   id="path3139"
   inkscape:connector-curvature="0"
   style="fill:#ffffff" />
</g>
<g
   transform="matrix(1.4397473,0,0,-1.4397473,-122.4151,458.24118)"
   id="g2995"><g
     id="g2997"
     clip-path="url(#clipPath2999)"><g
       id="g3003"
       transform="translate(619,210.0801)"><path
         inkscape:connector-curvature="0"
         d="m 0,0 c 0,0 -10.51,-118.91 -16.24,-176.439 -22.92,-6.721 -68.77,-20.141 -70.21,-20.141 -0.95,0 -46.8,13.42 -70.2,20.141 C -161.91,-118.91 -172.41,0 -172.41,0 L 0,0 z m -15.9,-14.08 -12.84,-151.25 -57.8,-16.481 -0.24,167.731 70.88,0 z"
         style="fill:#25a794;fill-opacity:1;fill-rule:evenodd;stroke:none"
         id="path3005" /></g><g
       id="g3007"
       transform="translate(603.2402,196.1699)"><path
         inkscape:connector-curvature="0"
         d="M 0,0 -12.801,-152.08 -71.26,-168.38 -71.26,0 0,0 z"
         style="fill:#73cac3;fill-opacity:1;fill-rule:evenodd;stroke:none"
         id="path3009" /></g><g
       id="g3011"
       transform="translate(585.6699,173.3799)"><path
         inkscape:connector-curvature="0"
         d="m 0,0 c 0,-0.85 -5.07,-65.319 -5.07,-65.319 l -14.89,0 9.29,-45.241 -26.17,-7.339 -5.06,52.58 -38.56,0.33 6.89,-51.761 -24.129,6.91 L -107.47,0 0,0 z m -22.99,-42.56 -59.199,0 -1.151,21.86 62.54,-0.23 -2.19,-21.63 z"
         style="fill:#ffffff;fill-opacity:1;fill-rule:evenodd;stroke:none"
         id="path3013" /></g><g
       id="g3015"
       transform="translate(569.2793,248.5298)"
       style="stroke:#fae9e9;stroke-opacity:1;fill:#000000;fill-opacity:1"><path
         inkscape:connector-curvature="0"
         d="M 0,0 C 0,0 8.471,1.31 9.281,-5.57 10.281,-14.12 0,-12.95 0,-12.95 L 0,0 z m -10.699,9.31 0.199,-31.57 c 0,0 34,-5.58 30.681,18.82 -2.42,17.8 -30.88,12.75 -30.88,12.75 m -40.58,0.2 -10.901,0 9.891,-31.98 9.49,0 5.449,15.59 5.451,-15.59 9.49,0 10.29,32.18 -11.301,0 -4.239,-15.58 -5.05,15.78 -8.881,0 -5.049,-15.38 -4.64,14.98 z M -81.76,0.4 c 0,0 8.981,1.42 8.781,-3.13 -0.17,-3.96 -8.781,-2.94 -8.781,-2.94 l 0,6.07 z m -10.289,9.31 c -0.41,1.11 0,-31.97 0,-31.97 l 10.49,0 0,9.31 c 0,0 1.11,0.5 8.08,-9.31 0.059,-0.09 12.11,0 12.11,0 l -7.471,11.13 c 0,0 9.891,2.83 5.051,14.77 -3.641,8.95 -27.86,4.96 -28.26,6.07"
         style="fill:#000000;fill-opacity:1;fill-rule:evenodd;stroke:#fae9e9;stroke-opacity:1"
         id="path3017" /></g></g></g></svg>